<svg width="28" height="28" viewBox="0 0 28 28" fill="none" xmlns="http://www.w3.org/2000/svg">
<circle cx="14" cy="14" r="14" fill="#14334E"/>
<path d="M15.888 12.0748L12.2239 12.4535L12.0927 12.9549L12.8127 13.0644C13.2831 13.1568 13.3759 13.2967 13.2735 13.6833L12.0927 18.2595C11.7823 19.4431 12.2607 20 13.3856 20C14.2576 20 15.2704 19.6675 15.7296 19.2109L15.8704 18.662C15.5504 18.8942 15.0832 18.9866 14.7728 18.9866C14.3328 18.9866 14.1728 18.7319 14.2864 18.2833L15.888 12.0748ZM16 9.31955C16 9.66952 15.8314 10.0052 15.5314 10.2526C15.2313 10.5001 14.8243 10.6391 14.4 10.6391C13.9756 10.6391 13.5686 10.5001 13.2686 10.2526C12.9685 10.0052 12.7999 9.66952 12.7999 9.31955C12.7999 8.96958 12.9685 8.63395 13.2686 8.38649C13.5686 8.13902 13.9756 8 14.4 8C14.8243 8 15.2313 8.13902 15.5314 8.38649C15.8314 8.63395 16 8.96958 16 9.31955Z" fill="white"/>
</svg>
